<svg width="64" height="64" viewBox="0 0 64 64" fill="none" xmlns="http://www.w3.org/2000/svg">
<path d="M7.33346 40.8511H2.00003C1.46959 40.8511 0.960876 41.0663 0.585796 41.4493C0.210717 41.8324 0 42.3519 0 42.8936V61.9574C0 62.4992 0.210717 63.0187 0.585796 63.4017C0.960876 63.7848 1.46959 64 2.00003 64H7.33346C10.3393 64 13.222 62.7805 15.3475 60.6099C17.4729 58.4393 18.667 55.4953 18.667 52.4255C18.667 49.3558 17.4729 46.4118 15.3475 44.2411C13.222 42.0705 10.3393 40.8511 7.33346 40.8511ZM7.33346 59.9149H4.00007V44.9362H7.33346C9.27842 44.9362 11.1437 45.7252 12.519 47.1298C13.8943 48.5343 14.6669 50.4392 14.6669 52.4255C14.6669 54.4118 13.8943 56.3168 12.519 57.7213C11.1437 59.1258 9.27842 59.9149 7.33346 59.9149ZM63.3844 58.0562C63.767 58.431 63.9883 58.9456 63.9995 59.4869C64.0108 60.0282 63.8111 60.5519 63.4444 60.943C62.5783 61.897 61.5304 62.6602 60.365 63.1859C59.1997 63.7116 57.9415 63.9886 56.6677 64C51.1542 64 46.6675 58.8085 46.6675 52.4255C46.6675 46.0426 51.1542 40.8511 56.6677 40.8511C57.942 40.8633 59.2005 41.1414 60.3659 41.6683C61.5312 42.1951 62.5788 42.9597 63.4444 43.9149C63.794 44.309 63.9792 44.8268 63.9609 45.3582C63.9425 45.8896 63.7219 46.3928 63.346 46.7607C62.9701 47.1287 62.4685 47.3324 61.9478 47.3286C61.4272 47.3248 60.9285 47.1138 60.5577 46.7404C60.0632 46.1857 59.4633 45.7397 58.7945 45.4295C58.1257 45.1193 57.402 44.9515 56.6677 44.9362C53.3576 44.9362 50.6676 48.2962 50.6676 52.4255C50.6676 56.5549 53.3576 59.9149 56.6677 59.9149C57.4016 59.9005 58.1249 59.7337 58.7937 59.4247C59.4624 59.1157 60.0626 58.6709 60.5577 58.1174C60.9247 57.7267 61.4286 57.5008 61.9587 57.4893C62.4887 57.4778 63.0015 57.6817 63.3844 58.0562ZM32.6672 40.8511C27.1538 40.8511 22.6671 46.0426 22.6671 52.4255C22.6671 58.8085 27.1538 64 32.6672 64C38.1807 64 42.6674 58.8085 42.6674 52.4255C42.6674 46.0426 38.1807 40.8511 32.6672 40.8511ZM32.6672 59.9149C29.3572 59.9149 26.6671 56.5549 26.6671 52.4255C26.6671 48.2962 29.3572 44.9362 32.6672 44.9362C35.9773 44.9362 38.6673 48.2962 38.6673 52.4255C38.6673 56.5549 35.9773 59.9149 32.6672 59.9149ZM6.0001 31.3191C6.53055 31.3191 7.03926 31.104 7.41434 30.7209C7.78942 30.3378 8.00014 29.8183 8.00014 29.2766V4.76596C8.00014 4.58538 8.07038 4.41221 8.19541 4.28452C8.32043 4.15684 8.49 4.08511 8.66682 4.08511H38.6673V21.1064C38.6673 21.6481 38.8781 22.1676 39.2531 22.5507C39.6282 22.9337 40.1369 23.1489 40.6674 23.1489H57.3343V29.2766C57.3343 29.8183 57.5451 30.3378 57.9201 30.7209C58.2952 31.104 58.8039 31.3191 59.3344 31.3191C59.8648 31.3191 60.3735 31.104 60.7486 30.7209C61.1237 30.3378 61.3344 29.8183 61.3344 29.2766V21.1064C61.3339 20.5648 61.1229 20.0457 60.7477 19.663L42.0807 0.599149C41.706 0.215986 41.1976 0.000476737 40.6674 0H8.66682C7.42912 0 6.24211 0.502126 5.36693 1.39592C4.49174 2.28971 4.00007 3.50195 4.00007 4.76596V29.2766C4.00007 29.8183 4.21079 30.3378 4.58587 30.7209C4.96095 31.104 5.46966 31.3191 6.0001 31.3191ZM42.6674 6.97191L54.5076 19.0638H42.6674V6.97191Z" fill="black"/>
</svg>
