<svg width="64" height="64" viewBox="0 0 64 64" fill="none" xmlns="http://www.w3.org/2000/svg">
<path d="M64 42.8936C64 43.4353 63.7752 43.9549 63.3752 44.3379C62.9751 44.721 62.4325 44.9362 61.8667 44.9362H52.6222V51.7447H59.0222C59.588 51.7447 60.1306 51.9599 60.5307 52.3429C60.9308 52.726 61.1556 53.2455 61.1556 53.7872C61.1556 54.329 60.9308 54.8485 60.5307 55.2315C60.1306 55.6146 59.588 55.8298 59.0222 55.8298H52.6222V61.9574C52.6222 62.4992 52.3975 63.0187 51.9974 63.4017C51.5973 63.7848 51.0547 64 50.4889 64C49.9231 64 49.3805 63.7848 48.9804 63.4017C48.5803 63.0187 48.3556 62.4992 48.3556 61.9574V42.8936C48.3556 42.3519 48.5803 41.8324 48.9804 41.4493C49.3805 41.0663 49.9231 40.8511 50.4889 40.8511H61.8667C62.4325 40.8511 62.9751 41.0663 63.3752 41.4493C63.7752 41.8324 64 42.3519 64 42.8936ZM17.0667 49.7021C17.0667 52.0496 16.0927 54.3009 14.359 55.9608C12.6254 57.6207 10.274 58.5532 7.82222 58.5532H4.26667V61.9574C4.26667 62.4992 4.04191 63.0187 3.64183 63.4017C3.24175 63.7848 2.69913 64 2.13333 64C1.56754 64 1.02492 63.7848 0.624839 63.4017C0.224761 63.0187 0 62.4992 0 61.9574V42.8936C0 42.3519 0.224761 41.8324 0.624839 41.4493C1.02492 41.0663 1.56754 40.8511 2.13333 40.8511H7.82222C10.274 40.8511 12.6254 41.7836 14.359 43.4435C16.0927 45.1034 17.0667 47.3547 17.0667 49.7021ZM12.8 49.7021C12.8 48.4381 12.2756 47.2259 11.342 46.3321C10.4085 45.4383 9.14241 44.9362 7.82222 44.9362H4.26667V54.4681H7.82222C9.14241 54.4681 10.4085 53.966 11.342 53.0722C12.2756 52.1784 12.8 50.9661 12.8 49.7021ZM42.6667 52.4255C42.6667 55.4953 41.393 58.4393 39.1259 60.6099C36.8588 62.7805 33.784 64 30.5778 64H24.8889C24.3231 64 23.7805 63.7848 23.3804 63.4017C22.9803 63.0187 22.7556 62.4992 22.7556 61.9574V42.8936C22.7556 42.3519 22.9803 41.8324 23.3804 41.4493C23.7805 41.0663 24.3231 40.8511 24.8889 40.8511H30.5778C33.784 40.8511 36.8588 42.0705 39.1259 44.2411C41.393 46.4118 42.6667 49.3558 42.6667 52.4255ZM38.4 52.4255C38.4 50.4392 37.5759 48.5343 36.1089 47.1298C34.642 45.7252 32.6524 44.9362 30.5778 44.9362H27.0222V59.9149H30.5778C32.6524 59.9149 34.642 59.1258 36.1089 57.7213C37.5759 56.3168 38.4 54.4118 38.4 52.4255ZM0 29.2766V4.76596C0 3.50195 0.524443 2.28971 1.45796 1.39592C2.39147 0.502127 3.65759 6.31643e-07 4.97778 6.31643e-07H39.1111C39.3918 -0.000210688 39.6697 0.0526033 39.929 0.155416C40.1883 0.258229 40.4239 0.40902 40.6222 0.59915L60.5333 19.663C60.9322 20.0462 61.156 20.5653 61.1556 21.1064V29.2766C61.1556 29.8183 60.9308 30.3378 60.5307 30.7209C60.1306 31.104 59.588 31.3191 59.0222 31.3191C58.4564 31.3191 57.9138 31.104 57.5137 30.7209C57.1137 30.3378 56.8889 29.8183 56.8889 29.2766V23.1489H39.1111C38.5453 23.1489 38.0027 22.9337 37.6026 22.5507C37.2025 22.1676 36.9778 21.6481 36.9778 21.1064V4.08511H4.97778C4.78918 4.08511 4.6083 4.15684 4.47495 4.28452C4.34159 4.41221 4.26667 4.58538 4.26667 4.76596V29.2766C4.26667 29.8183 4.04191 30.3378 3.64183 30.7209C3.24175 31.104 2.69913 31.3191 2.13333 31.3191C1.56754 31.3191 1.02492 31.104 0.624839 30.7209C0.224761 30.3378 0 29.8183 0 29.2766ZM41.2444 19.0638H53.8738L41.2444 6.97192V19.0638Z" fill="black"/>
</svg>
