<svg width="64" height="64" viewBox="0 0 64 64" fill="none" xmlns="http://www.w3.org/2000/svg">
<path d="M41.6742 61.9557C41.6742 62.4974 41.439 63.0169 41.0203 63.3999C40.6017 63.783 40.0338 63.9982 39.4417 63.9982H29.0237C28.4316 63.9982 27.8638 63.783 27.4451 63.3999C27.0265 63.0169 26.7913 62.4974 26.7913 61.9557V42.8924C26.7913 42.3507 27.0265 41.8312 27.4451 41.4481C27.8638 41.0651 28.4316 40.8499 29.0237 40.8499C29.6158 40.8499 30.1836 41.0651 30.6023 41.4481C31.0209 41.8312 31.2561 42.3507 31.2561 42.8924V59.9132H39.4417C40.0338 59.9132 40.6017 60.1284 41.0203 60.5114C41.439 60.8945 41.6742 61.414 41.6742 61.9557ZM18.4122 41.2278C17.9309 40.9138 17.3331 40.7873 16.75 40.876C16.1669 40.9647 15.646 41.2614 15.3016 41.7009L9.6759 48.9075L4.05015 41.7009C3.87914 41.4828 3.66283 41.2976 3.41359 41.1559C3.16434 41.0142 2.88704 40.9189 2.59751 40.8752C2.30798 40.8316 2.01189 40.8406 1.72615 40.9017C1.44041 40.9627 1.17062 41.0747 0.932179 41.2312C0.693735 41.3876 0.491311 41.5855 0.336462 41.8136C0.181614 42.0416 0.0773739 42.2953 0.0296947 42.5602C-0.0179846 42.8251 -0.00816887 43.096 0.0585798 43.3574C0.125328 43.6189 0.247703 43.8657 0.418718 44.0838L6.93372 52.424L0.418718 60.7642C0.247703 60.9824 0.125328 61.2292 0.0585798 61.4906C-0.00816887 61.7521 -0.0179846 62.023 0.0296947 62.2879C0.0773739 62.5528 0.181614 62.8065 0.336462 63.0345C0.491311 63.2625 0.693735 63.4604 0.932179 63.6169C1.17062 63.7734 1.44041 63.8853 1.72615 63.9464C2.01189 64.0075 2.30798 64.0164 2.59751 63.9728C2.88704 63.9292 3.16434 63.8338 3.41359 63.6922C3.66283 63.5505 3.87914 63.3653 4.05015 63.1471L9.6759 55.9337L15.3016 63.1369C15.5074 63.4025 15.7795 63.6192 16.0954 63.769C16.4112 63.9188 16.7616 63.9974 17.1174 63.9982C17.5822 63.9995 18.0355 63.866 18.4122 63.6169C18.6509 63.4611 18.8537 63.2639 19.0091 63.0364C19.1645 62.8089 19.2693 62.5556 19.3177 62.291C19.3661 62.0264 19.357 61.7557 19.291 61.4943C19.225 61.2329 19.1034 60.986 18.9331 60.7676L12.4181 52.424L18.9331 44.0804C19.104 43.862 19.2261 43.6148 19.2924 43.3531C19.3587 43.0913 19.3679 42.8202 19.3195 42.5552C19.2712 42.2902 19.1661 42.0366 19.0104 41.8088C18.8547 41.581 18.6514 41.3836 18.4122 41.2278ZM55.4409 50.116C51.4039 49.0505 50.4514 48.5195 50.6039 47.4233C50.6253 47.0791 50.7331 46.7441 50.9189 46.4441C51.1048 46.1442 51.3637 45.8875 51.6755 45.694C53.7591 44.4038 58.2426 45.0711 59.6528 45.4081C60.2228 45.5404 60.8269 45.4616 61.3338 45.1887C61.8407 44.9159 62.2094 44.471 62.3599 43.9509C62.5104 43.4307 62.4304 42.8772 62.1374 42.4107C61.8444 41.9441 61.362 41.6022 60.795 41.4592C60.0509 41.2754 53.3163 39.7572 49.1826 42.3035C48.3438 42.8241 47.6399 43.5066 47.1205 44.3029C46.6011 45.0993 46.2788 45.9901 46.1763 46.9127C45.5065 51.7432 50.7379 53.1253 54.2019 54.041C58.7114 55.2325 59.6974 55.8554 59.4853 57.3635C59.4662 57.7249 59.3554 58.0774 59.1616 58.3929C58.9679 58.7084 58.6966 58.9783 58.3691 59.1813C56.2818 60.451 51.8653 59.7396 50.4849 59.3923C49.9319 59.2903 49.3572 59.3835 48.8764 59.6533C48.3955 59.9232 48.0441 60.3495 47.8928 60.8467C47.7415 61.3439 47.8015 61.8751 48.0608 62.3334C48.3201 62.7917 48.7595 63.1433 49.2905 63.3173C51.073 63.7519 52.908 63.9806 54.7525 63.9982C56.7952 63.9982 59.0463 63.6748 60.8397 62.5889C61.7021 62.0624 62.4266 61.3679 62.9611 60.5551C63.4957 59.7424 63.8271 58.8315 63.9316 57.8877C64.6795 52.5568 59.1281 51.0896 55.4409 50.116ZM0.00199613 29.2758V4.76582C0.00199613 3.50185 0.550803 2.28964 1.52768 1.39588C2.50457 0.502112 3.8295 0 5.21102 0H40.93C41.5219 0.000476724 42.0894 0.21598 42.5076 0.599132L63.3437 19.6624C63.7625 20.0451 63.998 20.5643 63.9986 21.1058V29.2758C63.9986 29.8175 63.7634 30.337 63.3447 30.72C62.926 31.1031 62.3582 31.3183 61.7661 31.3183C61.174 31.3183 60.6062 31.1031 60.1875 30.72C59.7689 30.337 59.5337 29.8175 59.5337 29.2758V23.1483H40.93C40.338 23.1483 39.7701 22.9331 39.3515 22.55C38.9328 22.167 38.6976 21.6475 38.6976 21.1058V4.08499H5.21102C5.01366 4.08499 4.82438 4.15672 4.68483 4.2844C4.54527 4.41208 4.46687 4.58525 4.46687 4.76582V29.2758C4.46687 29.8175 4.23167 30.337 3.81301 30.72C3.39434 31.1031 2.82651 31.3183 2.23443 31.3183C1.64235 31.3183 1.07453 31.1031 0.655862 30.72C0.237199 30.337 0.00199613 29.8175 0.00199613 29.2758ZM43.1625 19.0633H56.3711L43.1625 6.97172V19.0633Z" fill="black"/>
</svg>
